HIERARCHY
ROOT Hips
{
	OFFSET -0.179506 -22.333345 2.821913
	CHANNELS 6 Xposition Yposition Zposition Zrotation Yrotation Xrotation 
	JOINT LeftUpLeg
	{
		OFFSET 6.951974 -9.140623 -0.681533
		CHANNELS 3 Zrotation Yrotation Xrotation
		JOINT LeftLeg
		{
			OFFSET 3.427654 -37.519855 -0.449580
			CHANNELS 3 Zrotation Yrotation Xrotation
			JOINT LeftFoot
			{
				OFFSET -1.359570 -39.796059 -4.369333
				CHANNELS 3 Zrotation Yrotation Xrotation
				JOINT LeftToe
				{
					OFFSET 2.635814 -5.579078 11.928840
					CHANNELS 3 Zrotation Yrotation Xrotation
					End Site
					{
						OFFSET 0.000000 0.000000 0.000000
					}
				}
			}
		}
	}
	JOINT RightUpLeg
	{
		OFFSET -6.767048 -9.052170 -0.431982
		CHANNELS 3 Zrotation Yrotation Xrotation
		JOINT RightLeg
		{
			OFFSET -3.829005 -38.256897 -0.885003
			CHANNELS 3 Zrotation Yrotation Xrotation
			JOINT RightFoot
			{
				OFFSET 1.577377 -39.841461 -4.231180
				CHANNELS 3 Zrotation Yrotation Xrotation
				JOINT RightToe
				{
					OFFSET -2.537174 -4.814398 12.334795
					CHANNELS 3 Zrotation Yrotation Xrotation
					End Site
					{
						OFFSET 0.000000 0.000000 0.000000
					}
				}
			}
		}
	}
	JOINT Spine
	{
		OFFSET -0.253288 10.896323 -2.669631
		CHANNELS 3 Zrotation Yrotation Xrotation
		JOINT Spine1
		{
			OFFSET 0.548704 13.518043 0.109247
			CHANNELS 3 Zrotation Yrotation Xrotation
			JOINT Spine2
			{
				OFFSET 0.145701 5.292222 2.542457
				CHANNELS 3 Zrotation Yrotation Xrotation
				JOINT Neck
				{
					OFFSET -0.277840 21.387037 -4.285703
					CHANNELS 3 Zrotation Yrotation Xrotation
					JOINT Head
					{
						OFFSET 0.515184 6.496960 5.134897
						CHANNELS 3 Zrotation Yrotation Xrotation
						End Site
						{
							OFFSET 0.000000 0.000000 0.000000
						}
					}
				}
				JOINT LeftShoulder
				{
					OFFSET 7.884473 12.174932 -3.408961
					CHANNELS 3 Zrotation Yrotation Xrotation
					JOINT LeftArm
					{
						OFFSET 9.097692 3.046888 -0.886815
						CHANNELS 3 Zrotation Yrotation Xrotation
						JOINT LeftForeArm
						{
							OFFSET 25.961220 -1.277207 -2.745643
							CHANNELS 3 Zrotation Yrotation Xrotation
							JOINT LeftHand
							{
								OFFSET 24.923361 0.898606 -0.117091
								CHANNELS 3 Zrotation Yrotation Xrotation
								End Site
								{
									OFFSET 0.000000 0.000000 0.000000
								}
							}
						}
					}
				}
				JOINT RightShoulder
				{
					OFFSET -8.175920 11.883285 -3.861528
					CHANNELS 3 Zrotation Yrotation Xrotation
					JOINT RightArm
					{
						OFFSET -9.601238 3.255117 -0.914307
						CHANNELS 3 Zrotation Yrotation Xrotation
						JOINT RightForeArm
						{
							OFFSET -25.374195 -1.332924 -2.140099
							CHANNELS 3 Zrotation Yrotation Xrotation
							JOINT RightHand
							{
								OFFSET -25.529810 0.777228 -0.555919
								CHANNELS 3 Zrotation Yrotation Xrotation
								End Site
								{
									OFFSET 0.000000 0.000000 0.000000
								}
							}
						}
					}
				}
			}
		}
	}
}
MOTION
Frames: 15
Frame Time: 0.033333
-17.217968 168.842606 90.549294 -127.876019 2.985506 86.601577 15.557159 9.901634 8.560738 -6.472244 2.261762 0.179437 1.710602 9.719857 -15.631926 nan nan nan -7.662357 -7.162875 -0.499485 3.537910 -8.607261 -1.358170 2.382027 -6.543707 -5.144861 nan nan nan -1.465605 -0.248408 3.766373 4.515589 -3.511427 6.805207 1.371736 -2.554818 -2.566894 4.792837 -15.930600 6.106175 2.572076 -22.128632 7.741077 -23.300051 2.180638 10.223034 -54.329407 -1.538725 13.646088 5.355717 -55.232749 33.650287 -25.748218 4.057241 -8.773622 26.811623 4.705723 4.464102 59.866245 7.208229 10.571657 -15.189741 22.879905 4.906075 17.125168 -4.634233 -3.053232 
-17.195986 168.828201 90.532829 -127.830508 3.082355 86.700822 15.679762 9.935280 8.375317 -6.535286 2.105048 0.274989 1.648868 9.869815 -15.735959 nan nan nan -7.610007 -7.519931 -0.632730 3.708141 -8.323189 -1.346785 2.632053 -6.708659 -5.207900 nan nan nan -1.360235 -0.290705 3.672598 4.414058 -3.485818 6.519098 1.494157 -2.590807 -2.153067 4.646276 -16.233381 5.864803 2.698552 -21.818608 7.724127 -23.042154 2.148418 10.234364 -54.960222 -1.396308 13.687863 5.312503 -55.035296 32.806101 -23.753662 4.709637 -10.617352 26.704988 4.706914 4.407714 59.831151 7.305093 10.509369 -14.931320 22.987559 4.620995 16.250883 -4.931869 -2.688652 
-17.203123 168.839081 90.498833 -127.764353 3.184748 86.698499 15.899774 10.166718 8.358882 -6.630113 2.018822 0.329643 2.014164 9.741383 -15.766223 nan nan nan -7.543063 -7.692764 -0.558851 3.834934 -8.032175 -1.453799 2.267921 -6.908645 -5.196123 nan nan nan -1.250836 -0.318317 3.632904 4.357579 -3.414725 6.615737 1.535780 -2.595826 -2.691135 4.591375 -16.919160 6.796474 2.678678 -21.540179 8.523454 -23.109412 1.730357 10.857967 -54.811497 -1.273291 13.617826 5.862729 -55.260498 33.588636 -24.949461 4.357267 -10.979057 26.524537 4.884473 4.923461 60.103705 7.134155 10.055035 -15.145624 22.976239 4.773553 16.683930 -4.373107 -2.772633 
-17.205549 168.835770 90.490715 -127.742841 3.203520 86.727281 15.941264 10.197464 8.278645 -6.655004 1.959136 0.396907 2.048820 9.748565 -15.721914 nan nan nan -7.487448 -7.772421 -0.613121 3.763076 -7.915657 -1.424964 2.150735 -6.968820 -5.160002 nan nan nan -1.226698 -0.306052 3.581160 4.353124 -3.408435 6.595026 1.575465 -2.638408 -2.632648 4.405267 -17.158190 6.815223 2.738175 -21.453291 8.378386 -23.066999 1.719382 10.832147 -55.049722 -1.128526 13.756175 5.789024 -55.197078 33.168977 -23.970988 4.881344 -12.055967 26.446512 4.877136 4.904505 60.161493 7.191325 10.097037 -15.110509 22.947797 4.642183 16.310367 -4.544429 -2.716530 
-17.203924 168.827835 90.491783 -127.776522 3.196338 86.748154 15.899807 10.068841 8.129057 -6.619727 2.045908 0.620695 1.984554 9.806374 -15.766955 nan nan nan -7.494020 -7.833866 -0.620044 3.741724 -7.687769 -1.422583 2.131827 -7.016304 -5.161226 nan nan nan -1.184623 -0.267821 3.537545 4.354443 -3.433207 6.571715 1.533396 -2.656764 -2.574710 4.480447 -17.229538 6.688419 2.598772 -21.390205 8.356183 -23.159083 1.769832 10.801454 -54.920029 -1.137515 13.806291 5.599022 -55.203227 33.306924 -23.971672 4.838963 -12.131333 26.482000 4.826215 4.842688 60.161599 7.199118 10.224379 -15.180603 22.913104 4.843652 16.425468 -4.513246 -2.365227 
-17.193550 168.825027 90.499084 -127.885948 3.186069 86.780203 15.816498 9.765557 7.967593 -6.558586 2.443830 0.906867 1.872866 9.834269 -15.910785 nan nan nan -7.514170 -7.957301 -0.633443 3.754767 -7.281539 -1.408951 2.137546 -7.022541 -5.137777 nan nan nan -1.129788 -0.186206 3.442853 4.365704 -3.484313 6.650391 1.488723 -2.649909 -2.601845 4.613767 -17.257482 6.615567 2.420362 -21.194441 8.181874 -23.278520 1.927706 10.779848 -54.816962 -1.212816 13.801190 5.500798 -55.172372 33.385365 -24.295430 4.572316 -12.208598 26.533314 4.684686 4.748803 60.148900 7.217376 10.423101 -15.342099 22.823569 5.424313 16.839536 -4.520848 -1.476002 
-17.182478 168.828232 90.501213 -127.954036 3.164000 86.785673 15.777719 9.591299 7.910676 -6.561249 2.737619 1.018118 1.866150 9.836073 -15.924451 nan nan nan -7.540192 -8.089954 -0.631415 3.774571 -7.064618 -1.402857 2.175128 -6.981136 -5.028010 nan nan nan -1.154791 -0.092455 3.406142 4.382579 -3.513905 6.720393 1.521292 -2.665260 -2.685030 4.695146 -17.199892 6.520862 2.247560 -20.882753 8.025702 -23.337896 2.000152 10.812459 -54.838941 -1.235325 13.791810 5.437761 -55.162093 33.443566 -24.345767 4.468334 -12.262623 26.499878 4.602896 4.731693 60.181164 7.222083 10.523312 -15.459068 22.786572 5.707803 17.086322 -4.528503 -0.969730 
-17.190336 168.828674 90.498482 -127.970038 3.158887 86.758843 15.797104 9.615002 7.952092 -6.581853 2.809335 0.994609 1.898383 9.817596 -15.901109 nan nan nan -7.541008 -8.159210 -0.604485 3.748893 -7.048413 -1.391076 2.206278 -6.944513 -4.996994 nan nan nan -1.138305 -0.068847 3.411851 4.371335 -3.508266 6.723174 1.556987 -2.678408 -2.766721 4.685796 -17.071045 6.443634 2.081345 -20.507695 7.913594 -23.352145 1.946793 10.924605 -54.915335 -1.192599 13.761398 5.365113 -55.154250 33.658315 -24.198277 4.437765 -12.224829 26.391981 4.621564 4.863806 60.276990 7.246685 10.502390 -15.495810 22.743443 5.785477 17.047697 -4.504240 -0.934114 
-17.201347 168.829163 90.494537 -127.973882 3.152650 86.747900 15.802984 9.642111 7.946911 -6.582535 2.829938 1.046674 1.892257 9.731667 -15.975824 nan nan nan -7.574321 -8.184171 -0.581005 3.777971 -7.033744 -1.378656 2.206529 -6.919752 -5.035637 nan nan nan -1.113939 -0.047757 3.378962 4.360189 -3.492442 6.740527 1.564894 -2.695880 -2.786221 4.688913 -17.022825 6.364619 2.013835 -20.343884 7.783700 -23.370371 1.896083 11.019613 -54.943110 -1.201765 13.744558 5.329319 -55.150604 33.785971 -24.148680 4.293484 -12.144796 26.316337 4.636036 4.930567 60.356155 7.267988 10.471585 -15.475177 22.691390 5.783367 17.011184 -4.457802 -0.979606 
-17.204624 168.824753 90.494843 -127.957395 3.146504 86.750026 15.798717 9.638063 7.897710 -6.571030 2.830147 1.127331 1.849438 9.637103 -15.978861 nan nan nan -7.593879 -8.161671 -0.550766 3.788762 -7.021305 -1.412386 2.246569 -6.935551 -5.039526 nan nan nan -1.110541 -0.045981 3.368303 4.363612 -3.508016 6.753384 1.549925 -2.691326 -2.797051 4.687019 -17.049989 6.326901 1.971409 -20.353481 7.741157 -23.389932 1.894332 11.050777 -54.927456 -1.218737 13.769284 5.234083 -55.150082 33.918490 -24.112777 4.109689 -12.047040 26.295989 4.625234 4.922721 60.396796 7.273557 10.478492 -15.456137 22.662954 5.778542 17.074132 -4.435974 -1.036552 
-17.209911 168.825531 90.492706 -127.944969 3.141515 86.747299 15.809548 9.650313 7.862458 -6.593550 2.781608 1.166588 1.862039 9.659659 -16.006793 nan nan nan -7.601341 -8.165063 -0.509823 3.780598 -7.043179 -1.464972 2.287374 -6.905576 -4.976919 nan nan nan -1.112076 -0.064944 3.355359 4.361644 -3.533773 6.774089 1.530854 -2.664908 -2.814452 4.688844 -17.018691 6.314832 1.949716 -20.376512 7.707665 -23.393461 1.903297 11.036129 -54.925943 -1.191696 13.815734 5.129852 -55.168649 34.069476 -24.143540 3.983747 -11.976796 26.296570 4.638434 4.962461 60.425097 7.290743 10.500589 -15.468787 22.642337 5.783358 17.116835 -4.426568 -1.163935 
-17.222195 168.818039 90.495567 -127.933049 3.129910 86.747495 15.785888 9.656871 7.854560 -6.590828 2.676918 1.150575 1.884678 9.757439 -16.081362 nan nan nan -7.620034 -8.187232 -0.487215 3.773975 -7.036549 -1.498330 2.338081 -6.875314 -4.936495 nan nan nan -1.105273 -0.056186 3.356504 4.355195 -3.527181 6.754597 1.528939 -2.685487 -2.827501 4.638144 -16.972538 6.303181 1.937736 -20.377854 7.679056 -23.399875 1.890246 11.026375 -54.950838 -1.172270 13.863855 5.041355 -55.178323 34.110739 -24.109053 3.980013 -11.930687 26.285592 4.637230 4.972398 60.423212 7.271653 10.523034 -15.437023 22.611399 5.814894 17.123433 -4.409621 -1.141706 
-17.229105 168.811615 90.496033 -127.945632 3.118816 86.765775 15.744897 9.630005 7.875314 -6.559351 2.669639 1.075659 1.886912 9.783167 -16.086137 nan nan nan -7.623285 -8.203276 -0.509460 3.763654 -7.002803 -1.498192 2.361486 -6.876953 -4.924108 nan nan nan -1.090566 0.000677 3.316328 4.340110 -3.483598 6.742533 1.522874 -2.738633 -2.833588 4.612562 -16.957749 6.306196 1.964883 -20.318294 7.671812 -23.419034 1.876695 11.048404 -54.954771 -1.191131 13.889610 4.967205 -55.196400 34.114334 -24.097864 4.063661 -11.927928 26.268613 4.594015 4.918702 60.437435 7.221313 10.528804 -15.384928 22.582187 5.856300 17.274680 -4.420710 -1.071802 
-17.227880 168.812393 90.491920 -127.963665 3.109501 86.793472 15.744079 9.594245 7.862164 -6.592462 2.788188 1.051815 1.903764 9.760021 -16.073603 nan nan nan -7.616142 -8.212631 -0.568264 3.753222 -6.997567 -1.460481 2.377971 -6.888832 -4.956729 nan nan nan -1.106025 0.023037 3.275634 4.331848 -3.448004 6.716787 1.514616 -2.745229 -2.831893 4.615995 -16.951979 6.288081 2.021287 -20.338108 7.733704 -23.412989 1.894682 11.051809 -54.966018 -1.237517 13.918910 4.893800 -55.183852 34.144284 -24.115168 4.065027 -11.958344 26.249783 4.559377 4.890946 60.463529 7.186011 10.555409 -15.313876 22.555360 5.911293 17.328993 -4.416302 -1.083139 
-17.228216 168.812805 90.492455 -127.974979 3.104729 86.783334 15.742577 9.597350 7.873919 -6.593970 2.816183 1.043812 1.903266 9.757060 -16.056494 nan nan nan -7.617655 -8.216130 -0.567258 3.746916 -7.000478 -1.456418 2.385185 -6.886508 -4.953848 nan nan nan -1.117123 0.017958 3.280214 4.326413 -3.446119 6.707153 1.504201 -2.735822 -2.826374 4.614992 -16.937881 6.255092 2.017756 -20.366056 7.800098 -23.414128 1.901804 11.042182 -54.969706 -1.251321 13.929319 4.852180 -55.187468 34.187090 -24.094203 4.048746 -11.913003 26.271064 4.557357 4.894619 60.458796 7.184632 10.555730 -15.304770 22.543481 5.896150 17.334793 -4.414771 -1.101021 
